<?xml version="1.0" encoding="utf-8"?>
<!-- Generator: Adobe Illustrator 15.1.0, SVG Export Plug-In . SVG Version: 6.00 Build 0)  -->
<!DOCTYPE svg PUBLIC "-//W3C//DTD SVG 1.1//EN" "http://www.w3.org/Graphics/SVG/1.1/DTD/svg11.dtd">
<svg version="1.1" id="Layer_1" xmlns="http://www.w3.org/2000/svg" xmlns:xlink="http://www.w3.org/1999/xlink" x="0px" y="0px"
	 width="359.228px" height="115.968px" viewBox="0 0 359.228 115.968" enable-background="new 0 0 359.228 115.968"
	 xml:space="preserve">
<g>
	<g>
		<path d="M106.596,31.109c0-9.803-7.605-16.138-19.377-16.138h-22.91v53.038h7.316V47.983h13.598l14.945,20.026h9.02l-16.02-21.31
			C101.721,44.75,106.596,39.121,106.596,31.109z M71.625,41.256V21.847h15.152c7.898,0,12.428,3.456,12.428,9.483
			c0,6.029-4.906,9.926-12.502,9.926H71.625z"/>
		<polygon points="139.139,68.009 139.139,21.847 156.439,21.847 156.439,14.972 114.447,14.972 114.447,21.847 131.748,21.847 
			131.748,68.009 		"/>
		<path d="M187.863,20.963c5.924,0,10.615,2.053,15.682,6.862l0.549,0.521l0.611-0.657l2.797-6.185
			c-4.438-3.965-10.021-7.416-19.564-7.416c-15.285,0-26.812,11.812-26.812,27.475c0,15.58,11.432,27.329,26.591,27.329
			c9.139,0,14.896-3.508,19.215-7.422l-3-6.63c-4.523,4.31-8.998,7.177-16.068,7.177c-10.945,0-19.201-8.856-19.201-20.6
			C168.662,29.756,176.918,20.963,187.863,20.963z"/>
		<path d="M331.089,14.972h-18.641v53.038h18.641c16.305,0,28.139-11.184,28.139-26.592
			C359.228,26.094,347.394,14.972,331.089,14.972z M331.089,61.134h-11.324V21.847h11.324c12.129,0,20.602,8.107,20.602,19.717
			C351.691,53.087,343.218,61.134,331.089,61.134z"/>
		<path d="M6.789,86.236L0,101.238h1.723L3.489,97.3h8.108l1.745,3.938h1.809L8.362,86.236H6.789z M4.149,95.789l3.404-7.596
			l3.384,7.596H4.149z"/>
		<path d="M35.196,90.789c0-2.682-2.106-4.447-5.383-4.447h-6.405v14.896h1.682v-5.789h4.256l4.318,5.789h2.065l-4.575-6.088
			C33.495,94.726,35.196,93.279,35.196,90.789z M25.09,93.937v-6.043h4.597c2.404,0,3.809,1.107,3.809,2.959
			c0,1.936-1.597,3.084-3.83,3.084H25.09z"/>
		<path d="M50.967,99.939c-3.279,0-5.767-2.703-5.767-6.172c0-3.467,2.468-6.127,5.767-6.127c2.021,0,3.424,0.85,4.68,2.043
			l1.149-1.234c-1.49-1.404-3.105-2.363-5.809-2.363c-4.384,0-7.534,3.469-7.534,7.725c0,4.299,3.172,7.682,7.471,7.682
			c2.702,0,4.403-1.043,5.957-2.617l-1.105-1.084C54.349,99.152,53.009,99.939,50.967,99.939z"/>
		<polygon points="75.416,92.958 66.82,92.958 66.82,86.341 65.138,86.341 65.138,101.238 66.82,101.238 66.82,94.535 
			75.416,94.535 75.416,101.238 77.098,101.238 77.098,86.341 75.416,86.341 		"/>
		<rect x="86.78" y="86.341" width="1.682" height="14.896"/>
		<polygon points="97.081,87.894 102.081,87.894 102.081,101.238 103.784,101.238 103.784,87.894 108.784,87.894 108.784,86.341 
			97.081,86.341 		"/>
		<polygon points="118.777,94.492 126.905,94.492 126.905,92.958 118.777,92.958 118.777,87.875 127.863,87.875 127.863,86.341 
			117.095,86.341 117.095,101.238 127.969,101.238 127.969,99.705 118.777,99.705 		"/>
		<path d="M143.05,99.939c-3.278,0-5.767-2.703-5.767-6.172c0-3.467,2.469-6.127,5.767-6.127c2.021,0,3.425,0.85,4.681,2.043
			l1.148-1.234c-1.489-1.404-3.105-2.363-5.808-2.363c-4.385,0-7.535,3.469-7.535,7.725c0,4.299,3.172,7.682,7.471,7.682
			c2.702,0,4.404-1.043,5.958-2.617l-1.106-1.084C146.432,99.152,145.092,99.939,143.05,99.939z"/>
		<polygon points="156.158,87.894 161.158,87.894 161.158,101.238 162.861,101.238 162.861,87.894 167.861,87.894 167.861,86.341 
			156.158,86.341 		"/>
		<polygon points="178.013,94.492 186.14,94.492 186.14,92.958 178.013,92.958 178.013,87.875 187.099,87.875 187.099,86.341 
			176.332,86.341 176.332,101.238 187.207,101.238 187.207,99.705 178.013,99.705 		"/>
		<path d="M201.251,92.98c-3.279-0.701-4.045-1.488-4.045-2.914c0-1.361,1.234-2.426,3.172-2.426c1.531,0,2.914,0.488,4.297,1.617
			l0.98-1.299c-1.512-1.213-3.064-1.83-5.236-1.83c-2.828,0-4.893,1.703-4.893,4.086c0,2.469,1.572,3.574,5,4.32
			c3.129,0.658,3.873,1.445,3.873,2.852c0,1.51-1.318,2.553-3.32,2.553c-2.064,0-3.553-0.703-5.107-2.107l-1.041,1.234
			c1.787,1.596,3.723,2.383,6.084,2.383c2.959,0,5.088-1.658,5.088-4.234C206.103,94.917,204.57,93.705,201.251,92.98z"/>
		<path d="M54.955,68.009L30.992,15.045l-0.201-0.441h-6.414L0.211,68.009h7.611l5.982-13.319h27.254h0.08l5.909,13.319H54.955z
			 M38.109,47.963H16.782l10.726-23.997l10.646,23.997H38.109z"/>
		<path d="M218.972,115.968h80.229V0h-80.229V115.968z M231.892,54.688l3.039-6.73h6.031l15.09-33.36h6.42l0.199,0.44l14.891,32.92
			h6.029l3.041,6.73h-6.031l6.031,13.319h-7.762l-19.623-44.049l-19.596,44.049h-7.76l6.029-13.319H231.892z"/>
	</g>
	<polygon fill="#CA7700" points="234.931,78.742 283.591,78.742 286.632,85.472 231.892,85.472 	"/>
</g>
</svg>
