<?xml version="1.0" encoding="utf-8"?>
<svg width="250" height="80" viewBox="0 0 250 80" fill="none" xmlns="http://www.w3.org/2000/svg">
<path d="M125.253 0C114.275 0 105.34 8.93058 105.34 19.9134C105.34 30.8916 114.275 39.8268 125.253 39.8268C136.231 39.8268 145.167 30.8962 145.167 19.9134C145.167 8.93058 136.231 0 125.253 0ZM125.253 36.964C115.854 36.964 108.207 29.3172 108.207 19.9134C108.207 10.5096 115.854 2.86285 125.253 2.86285C134.652 2.86285 142.299 10.5096 142.299 19.9134C142.299 29.3172 134.652 36.964 125.253 36.964Z" fill="#B48C64"/>
<path d="M132.356 29.9169V32.4237L133.167 31.8849C137.197 29.2141 139.6 24.7395 139.6 19.9134V18.8826H137.534V19.9134C137.539 23.9101 135.604 27.607 132.356 29.9169Z" fill="#B48C64"/>
<path d="M112.968 19.9134V18.8826H110.902V19.9134C110.902 24.7957 113.352 29.2985 117.452 31.9598L118.319 32.5221L118.357 32.4705V30.0669C114.978 27.7663 112.968 23.9991 112.968 19.9134Z" fill="#B48C64"/>
<path d="M115.676 11.0906H120.943V18.4844H118.019V21.3472H120.943V28.2443V33.8013C121.861 34.0871 122.822 34.2839 123.806 34.3823V28.2443V8.22778H115.676V11.0906Z" fill="#B48C64"/>
<path d="M136.377 14.7875C136.377 11.175 133.439 8.23247 129.826 8.22778H126.963V18.4797H125.258V21.3425H126.963V34.3448C127.952 34.2277 128.908 34.0121 129.826 33.7076V21.3378C133.439 21.3378 136.377 18.4 136.377 14.7875ZM129.826 18.4797V11.0953C131.86 11.1 133.509 12.754 133.509 14.7922C133.509 16.821 131.855 18.475 129.826 18.4797Z" fill="#B48C64"/>
<path d="M198.558 32.2505H147.814C147.407 32.2505 147.079 32.5832 147.079 32.9908C147.079 33.3984 147.411 33.7264 147.814 33.7264H198.558C198.966 33.7264 199.294 33.3937 199.294 32.9908C199.294 32.5832 198.961 32.2505 198.558 32.2505Z" fill="#B48C64"/>
<path d="M148.765 30.5588H148.808L193.025 28.1786C193.432 28.1551 193.742 27.8084 193.723 27.4008C193.704 26.9931 193.315 26.7401 192.95 26.7026L148.733 29.0829C148.325 29.1063 148.016 29.453 148.035 29.8607C148.049 30.2543 148.377 30.5588 148.765 30.5588Z" fill="#B48C64"/>
<path d="M149.717 27.3916C149.749 27.3916 149.778 27.3869 149.81 27.3822L187.496 22.6217C187.904 22.5702 188.185 22.2 188.138 21.7971C188.086 21.3894 187.711 21.0849 187.313 21.1598L149.628 25.925C149.225 25.9765 148.939 26.342 148.99 26.7496C149.037 27.1198 149.351 27.3916 149.717 27.3916Z" fill="#B48C64"/>
<path d="M150.672 24.2241C150.728 24.2241 150.784 24.2147 150.836 24.2053L181.995 17.0646C182.393 16.9756 182.641 16.5773 182.548 16.1838C182.454 15.7855 182.056 15.5418 181.662 15.6309L150.503 22.7716C150.105 22.8606 149.857 23.2589 149.95 23.6571C150.035 23.9945 150.335 24.2241 150.672 24.2241Z" fill="#B48C64"/>
<path d="M151.628 21.0567C151.717 21.0567 151.806 21.0426 151.895 21.0098L176.527 11.4842C176.906 11.3342 177.094 10.9079 176.949 10.5283C176.799 10.1441 176.368 9.96607 175.993 10.1066L151.361 19.6323C150.981 19.7822 150.794 20.2086 150.939 20.5881C151.052 20.8786 151.333 21.0567 151.628 21.0567Z" fill="#B48C64"/>
<path d="M102.693 32.2505H51.9485C51.5409 32.2505 51.2129 32.5832 51.2129 32.9908C51.2129 33.3984 51.5456 33.7264 51.9485 33.7264H102.693C103.1 33.7264 103.428 33.3937 103.428 32.9908C103.433 32.5832 103.1 32.2505 102.693 32.2505Z" fill="#B48C64"/>
<path d="M57.4823 28.1786L101.699 30.5588H101.742C102.13 30.5588 102.454 30.2543 102.477 29.8607C102.501 29.453 102.187 29.1063 101.779 29.0829L57.5619 26.7026C57.1965 26.7401 56.8076 26.9931 56.7888 27.4008C56.7654 27.8084 57.0793 28.1551 57.4823 28.1786Z" fill="#B48C64"/>
<path d="M63.0061 22.6265L100.692 27.3869C100.724 27.3916 100.753 27.3963 100.785 27.3963C101.151 27.3963 101.469 27.1245 101.516 26.7497C101.568 26.3421 101.282 25.9766 100.879 25.9251L63.1935 21.1646C62.7953 21.0896 62.4204 21.3989 62.3689 21.8018C62.3126 22.2048 62.5985 22.5749 63.0061 22.6265Z" fill="#B48C64"/>
<path d="M68.5071 17.0647L99.6658 24.2054C99.722 24.2148 99.7782 24.2242 99.8297 24.2242C100.162 24.2242 100.467 23.9946 100.547 23.6525C100.64 23.2543 100.387 22.856 99.9937 22.767L68.8351 15.6263C68.4415 15.5419 68.0433 15.7809 67.9495 16.1791C67.8652 16.5774 68.1135 16.971 68.5071 17.0647Z" fill="#B48C64"/>
<path d="M73.9796 11.4841L98.6113 21.0098C98.7004 21.0426 98.7894 21.0566 98.8784 21.0566C99.1736 21.0566 99.45 20.8786 99.5672 20.5834C99.7124 20.2039 99.525 19.7775 99.1455 19.6276L74.5138 10.1019C74.1342 9.96135 73.7079 10.1441 73.5579 10.5236C73.4127 10.9078 73.6001 11.3342 73.9796 11.4841Z" fill="#B48C64"/>
<path d="M121.468 77.5078H119.514V72.9066C119.514 72.8223 119.444 72.7473 119.369 72.7473H118.666C118.581 72.7473 118.521 72.8223 118.521 72.9066V78.3371C118.521 78.4168 118.581 78.4918 118.666 78.4918H121.472C121.557 78.4918 121.618 78.4168 121.618 78.3371V77.6624C121.613 77.5781 121.552 77.5078 121.468 77.5078Z" fill="#B48C64"/>
<path d="M124.663 72.7565C124.64 72.705 124.612 72.6675 124.532 72.6675H124.457C124.387 72.6675 124.349 72.705 124.326 72.7565L121.946 78.276C121.899 78.3838 121.96 78.4869 122.077 78.4869H122.742C122.864 78.4869 122.934 78.4072 122.962 78.3229L123.337 77.4373H125.628L126.003 78.3229C126.059 78.4353 126.111 78.4869 126.223 78.4869H126.893C127.006 78.4869 127.071 78.3791 127.025 78.276L124.663 72.7565ZM123.712 76.5283L124.466 74.7244H124.49L125.254 76.5283H123.712Z" fill="#B48C64"/>
<path d="M133.434 74.5138C133.434 73.5392 132.685 72.7473 131.762 72.7473H129.573C129.489 72.7473 129.428 72.8223 129.428 72.9066V78.3371C129.428 78.4168 129.489 78.4918 129.573 78.4918H130.276C130.351 78.4918 130.422 78.4168 130.422 78.3371V76.2427H131.274L132.291 78.4168C132.305 78.4496 132.343 78.4918 132.413 78.4918H133.219C133.35 78.4918 133.402 78.3606 133.35 78.2528L132.3 76.1677C132.966 75.8819 133.434 75.2681 133.434 74.5138ZM131.677 75.3665H130.426V73.736H131.677C132.085 73.736 132.436 74.0967 132.436 74.5325C132.436 74.987 132.085 75.3665 131.677 75.3665Z" fill="#B48C64"/>
<path d="M136.906 72.6675C135.374 72.6675 134.156 73.9888 134.156 75.6287C134.156 77.2687 135.374 78.5759 136.906 78.5759C138.438 78.5759 139.661 77.2733 139.661 75.6287C139.661 73.9888 138.438 72.6675 136.906 72.6675ZM136.906 77.5076C135.941 77.5076 135.154 76.6642 135.154 75.6287C135.154 74.5932 135.941 73.7358 136.906 73.7358C137.871 73.7358 138.668 74.5932 138.668 75.6287C138.668 76.6642 137.871 77.5076 136.906 77.5076Z" fill="#B48C64"/>
<path d="M144.45 77.0297C144.403 76.9781 144.319 76.9735 144.258 77.0297C143.935 77.3061 143.546 77.4982 143.087 77.4982C142.103 77.4982 141.372 76.6267 141.372 75.6053C141.372 74.5698 142.098 73.6936 143.082 73.6936C143.508 73.6936 143.939 73.8717 144.263 74.1762C144.323 74.2418 144.398 74.2418 144.455 74.1762L144.923 73.6608C144.984 73.5952 144.984 73.4968 144.914 73.4312C144.394 72.9299 143.832 72.6675 143.058 72.6675C141.526 72.6675 140.294 73.9888 140.294 75.6287C140.294 77.2687 141.526 78.5712 143.058 78.5712C143.738 78.5712 144.398 78.3182 144.919 77.7747C144.97 77.7185 144.989 77.6107 144.928 77.5545L144.45 77.0297Z" fill="#B48C64"/>
<path d="M150.284 72.7473H149.576C149.492 72.7473 149.431 72.8223 149.431 72.9066V75.0807H146.933V72.9066C146.933 72.8223 146.872 72.7473 146.788 72.7473H146.076C146.001 72.7473 145.931 72.8223 145.931 72.9066V78.3371C145.931 78.4168 146.001 78.4918 146.076 78.4918H146.788C146.872 78.4918 146.933 78.4168 146.933 78.3371V76.074H149.431V78.3371C149.431 78.4168 149.492 78.4918 149.576 78.4918H150.284C150.358 78.4918 150.429 78.4168 150.429 78.3371V72.9066C150.429 72.8223 150.358 72.7473 150.284 72.7473Z" fill="#B48C64"/>
<path d="M155.1 72.7473H151.979C151.895 72.7473 151.834 72.8223 151.834 72.9066V78.3371C151.834 78.4168 151.895 78.4918 151.979 78.4918H155.1C155.184 78.4918 155.245 78.4168 155.245 78.3371V77.6624C155.245 77.5781 155.184 77.5031 155.1 77.5031H152.832V76.0693H154.725C154.8 76.0693 154.87 76.0037 154.87 75.91V75.2306C154.87 75.1463 154.8 75.076 154.725 75.076H152.832V73.7313H155.1C155.184 73.7313 155.245 73.6563 155.245 73.572V72.9019C155.245 72.8223 155.184 72.7473 155.1 72.7473Z" fill="#B48C64"/>
<path d="M159.303 77.5078H157.349V72.9066C157.349 72.8223 157.279 72.7473 157.204 72.7473H156.501C156.417 72.7473 156.356 72.8223 156.356 72.9066V78.3371C156.356 78.4168 156.417 78.4918 156.501 78.4918H159.308C159.392 78.4918 159.453 78.4168 159.453 78.3371V77.6624C159.448 77.5781 159.387 77.5078 159.303 77.5078Z" fill="#B48C64"/>
<path d="M163.178 77.5078H161.224V72.9066C161.224 72.8223 161.154 72.7473 161.079 72.7473H160.376C160.291 72.7473 160.23 72.8223 160.23 72.9066V78.3371C160.23 78.4168 160.291 78.4918 160.376 78.4918H163.182C163.267 78.4918 163.328 78.4168 163.328 78.3371V77.6624C163.323 77.5781 163.262 77.5078 163.178 77.5078Z" fill="#B48C64"/>
<path d="M167.371 72.7473H164.251C164.166 72.7473 164.105 72.8223 164.105 72.9066V78.3371C164.105 78.4168 164.166 78.4918 164.251 78.4918H167.371C167.456 78.4918 167.517 78.4168 167.517 78.3371V77.6624C167.517 77.5781 167.456 77.5031 167.371 77.5031H165.103V76.0693H166.996C167.071 76.0693 167.142 76.0037 167.142 75.91V75.2306C167.142 75.1463 167.071 75.076 166.996 75.076H165.103V73.7313H167.371C167.456 73.7313 167.517 73.6563 167.517 73.572V72.9019C167.517 72.8223 167.456 72.7473 167.371 72.7473Z" fill="#B48C64"/>
<path d="M88.1021 74.1621L86.8933 71.7163L85.6891 74.1621L82.9902 74.551L84.9441 76.4534L84.4849 79.1428L86.8933 77.8731L89.3063 79.1428L88.8471 76.4534L90.801 74.551L88.1021 74.1621Z" fill="#B48C64"/>
<path d="M99.5252 74.1621L98.321 71.7163L97.1168 74.1621L94.418 74.551L96.3671 76.4534L95.908 79.1428L98.321 77.8731L100.734 79.1428L100.275 76.4534L102.224 74.551L99.5252 74.1621Z" fill="#B48C64"/>
<path d="M110.096 74.1621L108.887 71.7163L107.683 74.1621L104.984 74.551L106.938 76.4534L106.474 79.1428L108.887 77.8731L111.3 79.1428L110.841 76.4534L112.795 74.551L110.096 74.1621Z" fill="#B48C64"/>
<path d="M13.5271 45.0557H12.5525C12.276 45.0557 12.0792 45.2946 12.0792 45.5617V53.3537H1.92106V45.5617C1.92106 45.2946 1.71958 45.0557 1.44782 45.0557H0.473236C0.224905 45.0557 0 45.2946 0 45.5617V63.2214C0 63.4885 0.224905 63.7274 0.473236 63.7274H1.44782C1.72427 63.7274 1.92106 63.4885 1.92106 63.2214V55.1389H12.0746V63.2214C12.0746 63.4885 12.2713 63.7274 12.5478 63.7274H13.5224C13.7707 63.7274 13.9956 63.4885 13.9956 63.2214V45.5617C14.0003 45.2993 13.7754 45.0557 13.5271 45.0557Z" fill="#4BB4E6"/>
<path d="M26.8012 44.7886C21.8017 44.7886 17.8237 49.0852 17.8237 54.422C17.8237 59.7588 21.8017 63.9992 26.8012 63.9992C31.8006 63.9992 35.802 59.7588 35.802 54.422C35.8067 49.0852 31.8006 44.7886 26.8012 44.7886ZM26.8012 62.1343C22.8232 62.1343 19.5761 58.6671 19.5761 54.422C19.5761 50.1769 22.8279 46.6581 26.8012 46.6581C30.7745 46.6581 34.0543 50.1769 34.0543 54.422C34.0543 58.6624 30.7792 62.1343 26.8012 62.1343Z" fill="#4BB4E6"/>
<path d="M23.6756 43.0551C23.8021 43.2425 23.9521 43.3221 24.2519 43.1066L26.8008 41.2933L29.3498 43.1581C29.8511 43.533 30.0526 42.8911 30.2775 42.5725C30.404 42.385 30.2775 42.1742 30.1276 42.0664L27.1288 39.5597C27.0304 39.48 26.9555 39.4519 26.8055 39.4519C26.7071 39.4519 26.5806 39.48 26.4822 39.5597L23.4835 42.0664C23.3336 42.1742 23.2071 42.385 23.3336 42.5725L23.6756 43.0551Z" fill="#4BB4E6"/>
<path d="M48.0546 45.0557H37.4513C37.1748 45.0557 36.978 45.2946 36.978 45.5617V46.3348C36.978 46.6019 37.1795 46.8408 37.4513 46.8408H41.8041V63.2214C41.8041 63.4885 42.029 63.7274 42.2773 63.7274H43.2285C43.4768 63.7274 43.7017 63.4885 43.7017 63.2214V46.8408H48.0499C48.3263 46.8408 48.5278 46.6019 48.5278 46.3348V45.5617C48.5278 45.2993 48.331 45.0557 48.0546 45.0557Z" fill="#4BB4E6"/>
<path d="M61.6052 45.0557H51.7516C51.4751 45.0557 51.2783 45.2946 51.2783 45.5617V63.2214C51.2783 63.4885 51.4798 63.7274 51.7516 63.7274H61.6052C61.8816 63.7274 62.0784 63.4885 62.0784 63.2214V62.4483C62.0784 62.1812 61.8769 61.9422 61.6052 61.9422H53.2041V55.1389H60.3823C60.6306 55.1389 60.8602 54.9233 60.8602 54.6328V53.8597C60.8602 53.5927 60.6353 53.3537 60.3823 53.3537H53.2041V46.8455H61.6052C61.8816 46.8455 62.0784 46.6066 62.0784 46.3395V45.5664C62.0831 45.2993 61.8816 45.0557 61.6052 45.0557Z" fill="#4BB4E6"/>
<path d="M75.2072 61.9469H68.0055V45.5663C68.0055 45.2993 67.7806 45.0603 67.5323 45.0603H66.5577C66.2813 45.0603 66.0845 45.2993 66.0845 45.5663V63.226C66.0845 63.4931 66.286 63.7321 66.5577 63.7321H75.2118C75.4883 63.7321 75.6851 63.4931 75.6851 63.226V62.4529C75.6804 62.1858 75.4836 61.9469 75.2072 61.9469Z" fill="#4BB4E6"/>
<path d="M94.2351 45.0557H84.3814C84.105 45.0557 83.9082 45.2946 83.9082 45.5617V63.2214C83.9082 63.4885 84.1097 63.7274 84.3814 63.7274H85.356C85.6044 63.7274 85.8293 63.4885 85.8293 63.2214V55.9401H93.0075C93.2558 55.9401 93.4854 55.7011 93.4854 55.4341V54.661C93.4854 54.3939 93.2605 54.1549 93.0075 54.1549H85.8293V46.8455H94.2304C94.5068 46.8455 94.7036 46.6066 94.7036 46.3395V45.5664C94.7083 45.2993 94.5068 45.0557 94.2351 45.0557Z" fill="#4BB4E6"/>
<path d="M110.536 50.7392C110.536 47.5624 108.085 45.0557 105.086 45.0557H98.6109C98.3345 45.0557 98.1377 45.2946 98.1377 45.5617V63.2214C98.1377 63.4885 98.3392 63.7274 98.6109 63.7274H99.5855C99.8338 63.7274 100.059 63.4885 100.059 63.2214V56.4227H104.833L108.16 63.4931C108.212 63.6009 108.338 63.7321 108.558 63.7321H109.833C110.259 63.7321 110.432 63.3057 110.259 62.959L106.834 56.1838C109.013 55.2466 110.536 53.1944 110.536 50.7392ZM104.96 54.661H100.11V47.0048H104.96C106.886 47.0048 108.563 48.7385 108.563 50.7673C108.558 52.9554 106.886 54.661 104.96 54.661Z" fill="#4BB4E6"/>
<path d="M120.961 45.0838C120.886 44.9245 120.76 44.7886 120.535 44.7886H120.287C120.062 44.7886 119.935 44.9245 119.86 45.0838L112.26 63.0386C112.11 63.3854 112.312 63.7321 112.687 63.7321H113.685C113.91 63.7321 114.06 63.5728 114.111 63.4369L115.938 59.0325H124.817L126.668 63.4369C126.72 63.5681 126.87 63.7321 127.095 63.7321H128.093C128.467 63.7321 128.669 63.3854 128.519 63.0386L120.961 45.0838ZM116.637 57.3832L120.287 48.6307H120.488C121.711 51.5404 122.91 54.4735 124.138 57.3832H116.637Z" fill="#4BB4E6"/>
<path d="M145.017 45.0605H144.14C143.864 45.0605 143.667 45.2995 143.667 45.5666V59.7871H143.616L132.338 44.7935H131.714C131.466 44.7935 131.241 45.009 131.241 45.2714V63.2263C131.241 63.4933 131.466 63.7323 131.714 63.7323H132.591C132.867 63.7323 133.064 63.4933 133.064 63.2263V48.7152H133.087L144.567 64.004H145.017C145.265 64.004 145.495 63.7885 145.495 63.5261V45.5712C145.49 45.2995 145.265 45.0605 145.017 45.0605Z" fill="#4BB4E6"/>
<path d="M163.693 59.9696C163.543 59.8619 163.341 59.8337 163.093 60.0493C161.767 61.1176 160.493 62.05 158.319 62.05C154.369 62.05 151.342 58.5031 151.342 54.3939C151.342 50.2566 154.369 46.7096 158.319 46.7096C160.019 46.7096 161.795 47.5109 163.093 48.7103C163.341 48.9774 163.543 49.0055 163.744 48.7385L164.419 48.0169C164.621 47.806 164.592 47.4827 164.396 47.2719C162.695 45.7257 160.867 44.7886 158.342 44.7886C153.343 44.7886 149.313 49.0852 149.313 54.422C149.313 59.3277 152.719 63.301 157.157 63.9101V66.0374C157.157 66.2248 157.306 66.3747 157.494 66.3747H158.698C158.885 66.3747 159.035 66.2248 159.035 66.0374V63.9664C161.013 63.8117 162.896 62.9871 164.419 61.4128C164.592 61.2253 164.644 60.8505 164.443 60.6912L163.693 59.9696Z" fill="#4BB4E6"/>
<path d="M175.894 44.7886C170.895 44.7886 166.917 49.0852 166.917 54.422C166.917 59.7588 170.895 63.9992 175.894 63.9992C180.893 63.9992 184.895 59.7588 184.895 54.422C184.895 49.0852 180.893 44.7886 175.894 44.7886ZM175.894 62.1343C171.916 62.1343 168.669 58.6671 168.669 54.422C168.669 50.1769 171.921 46.6581 175.894 46.6581C179.872 46.6581 183.147 50.1769 183.147 54.422C183.142 58.6624 179.867 62.1343 175.894 62.1343Z" fill="#4BB4E6"/>
<path d="M190.194 45.0557H189.196C188.948 45.0557 188.723 45.2946 188.723 45.5617V63.2214C188.723 63.4885 188.948 63.7274 189.196 63.7274H190.194C190.442 63.7274 190.672 63.4885 190.672 63.2214V45.5617C190.667 45.2993 190.442 45.0557 190.194 45.0557Z" fill="#4BB4E6"/>
<path d="M199.921 53.274C197.822 52.3416 196.548 51.3014 196.548 49.5116C196.548 48.3917 197.349 46.5784 199.996 46.5784C201.524 46.5784 203.098 47.6983 203.271 47.806C203.67 48.045 203.923 47.9372 204.148 47.5671C204.246 47.4078 204.349 47.2204 204.447 47.061C204.747 46.555 204.447 46.2317 204.297 46.1521C204.297 46.1521 202.47 44.7886 200.02 44.7886C196.046 44.7886 194.692 47.7217 194.692 49.5397C194.692 52.5806 196.341 53.7801 199.092 55.0639C201.969 56.343 203.468 57.4395 203.468 59.2809C203.468 60.8552 202.142 62.214 200.118 62.214C197.892 62.214 196.07 60.3445 195.892 60.1852C195.54 59.8665 195.269 60.0774 195.015 60.4241C194.889 60.5834 194.767 60.7708 194.641 60.9302C194.341 61.4362 194.589 61.6517 194.791 61.8391C195.114 62.1578 197.115 63.9992 200.066 63.9992C202.99 63.9992 205.469 61.9703 205.469 59.1965C205.474 56.1041 203.295 54.7406 199.921 53.274Z" fill="#4BB4E6"/>
<path d="M217.197 45.5898H216.522L213.022 49.2164C212.895 49.3523 212.797 49.5913 212.97 49.8021L213.443 50.3644C213.622 50.5799 213.818 50.5518 214.02 50.3925L215.819 48.8978V63.2261C215.819 63.4932 216.021 63.7321 216.292 63.7321H217.192C217.44 63.7321 217.642 63.4932 217.642 63.2261V46.0959C217.646 45.8288 217.445 45.5898 217.197 45.5898Z" fill="#4BB4E6"/>
<path d="M233.123 45.0557H223.269C222.993 45.0557 222.796 45.2946 222.796 45.5617V63.2214C222.796 63.4885 222.997 63.7274 223.269 63.7274H233.123C233.399 63.7274 233.596 63.4885 233.596 63.2214V62.4483C233.596 62.1812 233.395 61.9422 233.123 61.9422H224.722V55.1389H231.9C232.148 55.1389 232.378 54.9233 232.378 54.6328V53.8597C232.378 53.5927 232.153 53.3537 231.9 53.3537H224.722V46.8455H233.123C233.399 46.8455 233.596 46.6066 233.596 46.3395V45.5664C233.596 45.2993 233.399 45.0557 233.123 45.0557Z" fill="#4BB4E6"/>
<path d="M246.298 56.1837C248.477 55.2513 250 53.1943 250 50.7438C250 47.567 247.549 45.0603 244.551 45.0603H238.075C237.799 45.0603 237.602 45.2993 237.602 45.5663V63.226C237.602 63.4931 237.804 63.7321 238.075 63.7321H239.05C239.298 63.7321 239.523 63.4931 239.523 63.226V56.4227H244.298L247.624 63.4931C247.676 63.6009 247.802 63.7321 248.023 63.7321H249.297C249.723 63.7321 249.897 63.3057 249.723 62.9589L246.298 56.1837ZM239.575 54.6609V47.0048H244.429C246.355 47.0048 248.027 48.7384 248.027 50.7673C248.027 52.9554 246.35 54.6609 244.429 54.6609H239.575Z" fill="#4BB4E6"/>
</svg>
