<svg width="106" height="106" viewBox="0 0 106 106" fill="none" xmlns="http://www.w3.org/2000/svg">
<circle cx="53" cy="53" r="51.5" fill="#100242" stroke="#FFFBFB" stroke-width="3"/>
<path d="M42.4 77.7333L23.9904 83.87C22.6176 84.3276 21.2 83.3057 21.2 81.8585V29.7947C21.2 28.8822 21.7839 28.072 22.6496 27.7835L42.4 21.2M42.4 77.7333L63.6 84.8ZM42.4 77.7333V21.2ZM63.6 84.8L83.3503 78.2167C84.2159 77.928 84.8 77.1178 84.8 76.2052V24.1414C84.8 22.6943 83.3824 21.6725 82.0097 22.1301L63.6 28.2667M63.6 84.8V28.2667ZM63.6 28.2667L42.4 21.2Z" fill="#100242"/>
<path d="M42.4 77.7333L23.9904 83.87C22.6176 84.3276 21.2 83.3057 21.2 81.8585V29.7947C21.2 28.8822 21.7839 28.072 22.6496 27.7835L42.4 21.2M42.4 77.7333L63.6 84.8M42.4 77.7333V21.2M42.4 21.2L63.6 28.2667M63.6 84.8L83.3503 78.2167C84.2159 77.928 84.8 77.1178 84.8 76.2052V24.1414C84.8 22.6943 83.3824 21.6725 82.0097 22.1301L63.6 28.2667M63.6 84.8V28.2667" stroke="#FFFBFB" stroke-width="4.56872" stroke-linecap="round" stroke-linejoin="round"/>
</svg>
