<svg width="106" height="106" viewBox="0 0 106 106" fill="none" xmlns="http://www.w3.org/2000/svg">
<circle cx="53" cy="53" r="51.5" fill="#100242" stroke="#FFFBFB" stroke-width="3"/>
<path d="M25 73.2004V44.9501C25 41.8297 27.5072 39.3001 30.6 39.3001H32C33.7626 39.3001 35.4224 38.4628 36.48 37.0401L42.696 28.678C43.0133 28.2512 43.5112 28 44.04 28H61.96C62.4889 28 62.9868 28.2512 63.304 28.678L69.52 37.0401C70.5776 38.4628 72.2374 39.3001 74 39.3001H75.4C78.4929 39.3001 81 41.8297 81 44.9501V73.2004C81 76.3209 78.4929 78.8504 75.4 78.8504H30.6C27.5072 78.8504 25 76.3209 25 73.2004Z" fill="#100242" stroke="#FFFBFB" stroke-width="3.82087" stroke-linecap="round" stroke-linejoin="round"/>
<path d="M53 67.5503C59.1855 67.5503 64.2 62.491 64.2 56.2502C64.2 50.0095 59.1855 44.9501 53 44.9501C46.8144 44.9501 41.8 50.0095 41.8 56.2502C41.8 62.491 46.8144 67.5503 53 67.5503Z" fill="#100242" stroke="#FFFBFB" stroke-width="3.82087" stroke-linecap="round" stroke-linejoin="round"/>
</svg>
