<svg width="106" height="106" viewBox="0 0 106 106" fill="none" xmlns="http://www.w3.org/2000/svg">
<circle cx="53" cy="53" r="51.5" fill="#100242" stroke="#FFFBFB" stroke-width="3"/>
<path d="M62.1262 47.5019L74.24 19ZM46.0241 48.134L32 19ZM57.2189 46.1617L44.4608 19ZM62.4128 19L59.0336 27.4375ZM35.2492 66.25C35.2492 77.4337 43.9776 86.5 54.7446 86.5C65.5116 86.5 74.24 77.4337 74.24 66.25C74.24 55.0663 65.5116 46 54.7446 46C43.9776 46 35.2492 55.0663 35.2492 66.25Z" fill="#100242"/>
<path d="M62.1262 47.5019L74.24 19M46.0241 48.134L32 19M57.2189 46.1617L44.4608 19M62.4128 19L59.0336 27.4375M35.2492 66.25C35.2492 77.4337 43.9776 86.5 54.7446 86.5C65.5116 86.5 74.24 77.4337 74.24 66.25C74.24 55.0663 65.5116 46 54.7446 46C43.9776 46 35.2492 55.0663 35.2492 66.25Z" stroke="#FFF9F9" stroke-width="6" stroke-linecap="round" stroke-linejoin="round"/>
</svg>
