<svg width="106" height="106" viewBox="0 0 106 106" fill="none" xmlns="http://www.w3.org/2000/svg">
<circle cx="53" cy="53" r="51.5" fill="#100242" stroke="#FFFBFB" stroke-width="3"/>
<path d="M56.8546 30.9584L66.8129 21L84.24 38.4272L74.2817 48.3855M56.8546 30.9584L23.0312 64.7817C22.371 65.4418 22 66.3375 22 67.2713V83.24H37.9688C38.9026 83.24 39.7982 82.8693 40.4585 82.2088L74.2817 48.3855M56.8546 30.9584L74.2817 48.3855Z" fill="#100242"/>
<path d="M56.8546 30.9584L66.8129 21L84.24 38.4272L74.2817 48.3855M56.8546 30.9584L23.0312 64.7817C22.371 65.4418 22 66.3375 22 67.2713V83.24H37.9688C38.9026 83.24 39.7982 82.8693 40.4585 82.2088L74.2817 48.3855M56.8546 30.9584L74.2817 48.3855" stroke="#FFFBFB" stroke-width="5.3661" stroke-linecap="round" stroke-linejoin="round"/>
</svg>
